<?xml version="1.0" encoding="UTF-8"?>
<svg width="199px" height="22px" viewBox="0 0 199 22" version="1.1" xmlns="http://www.w3.org/2000/svg" xmlns:xlink="http://www.w3.org/1999/xlink">
    <!-- Generator: Sketch 55.2 (78181) - https://sketchapp.com -->
    <title>logo@2x</title>
    <desc>Created with Sketch.</desc>
    <g id="⚛️-Symbols" stroke="none" stroke-width="1" fill="#199ed8" fill-rule="evenodd">
        <g id="top-navigation-/-desktop" transform="translate(-150.000000, -29.000000)" fill="#199ed8">
            <g id="logo-/-landscape" transform="translate(149.000000, 29.000000)">
                <path d="M30.5169548,16.4775492 C30.9347531,16.5107295 31.2853859,16.5614016 31.6363799,16.5624836 C34.1312534,16.5695164 36.6263076,16.5774508 39.1211811,16.5612213 C40.2613698,16.5540082 41.4102249,16.5715 42.5388582,16.438959 C44.6847239,16.1874016 45.5273621,15.2107459 45.5842362,13.0374344 C45.6147495,11.8672869 45.6026525,10.6956967 45.5894722,9.5250082 C45.562931,7.15784426 44.6227944,6.06289344 42.2835571,5.6860082 C41.8412036,5.61477869 41.3854892,5.60540164 40.9359137,5.60431967 C37.8096482,5.59602459 34.6833828,5.59512295 31.5571174,5.59945082 C31.2368173,5.5999918 30.9163368,5.65102459 30.5169548,5.68546721 L30.5169548,16.4775492 Z M23.8213482,21.8529426 L23.8213482,0.284827869 C24.1920224,0.249303279 24.5377803,0.187631148 24.8837188,0.187270492 C31.0483206,0.183122951 37.2129224,0.166532787 43.3773437,0.205844262 C44.5408236,0.213418033 45.7236226,0.353172131 46.8618252,0.597696721 C50.2612665,1.32838525 51.9060992,3.03554918 52.1487616,6.49964754 C52.360008,9.51671311 52.3146893,12.5620902 52.2088856,15.5887131 C52.0592076,19.8738443 49.7701638,21.761877 45.2372144,21.8323852 C40.3669929,21.9083033 35.4944243,21.8518607 30.6229391,21.8529426 C28.7585546,21.8533033 26.8941701,21.8529426 25.0297857,21.8529426 L23.8213482,21.8529426 Z M83.4446377,0.255181967 L93.2650653,0.255181967 C97.4260767,5.3645918 101.63331,10.5306246 105.840542,15.6966574 C105.916374,15.6802475 105.992387,15.663477 106.068219,15.6468869 L106.068219,0.265460656 L112.6638,0.265460656 L112.6638,21.7762311 L102.907288,21.7762311 C98.7159433,16.7005426 94.4995023,11.5941984 90.2830612,6.48803443 C90.2083125,6.51652623 90.1333832,6.5448377 90.0586345,6.57332951 L90.0586345,21.7540508 L83.4446377,21.7540508 L83.4446377,0.255181967 Z M55.6980253,8.39538033 L79.2483824,8.39538033 L79.2483824,13.6766426 L62.3566186,13.6766426 L62.3566186,16.545118 L79.4852672,16.545118 L79.4852672,21.7555115 L55.6980253,21.7555115 L55.6980253,8.39538033 Z M115.559788,0.251214754 L140.147419,0.251214754 L140.147419,5.54275574 L131.21531,5.54275574 L131.21531,21.7789361 L124.534328,21.7789361 L124.534328,5.6208377 L115.559788,5.6208377 L115.559788,0.251214754 Z M154.115497,0.253865574 L177.682285,0.253865574 L177.682285,5.55298033 L160.711981,5.55298033 L160.711981,21.7484066 L154.115497,21.7484066 L154.115497,0.253865574 Z M143.4258,21.7641311 L143.4258,0.256606557 L149.914674,0.256606557 L149.914674,21.7641311 L143.4258,21.7641311 Z M55.6464415,5.46862295 L55.6464415,0.262918033 L79.3193937,0.262918033 L79.3193937,5.46862295 L55.6464415,5.46862295 Z M1.46843297,21.7953279 L1.46843297,8.41554098 L7.95225152,8.41554098 L7.95225152,21.7953279 L1.46843297,21.7953279 Z M12.6670173,21.7612459 L12.6670173,8.39859016 L19.1277251,8.39859016 L19.1277251,21.7612459 L12.6670173,21.7612459 Z M182.061855,21.7985738 L182.061855,8.42419672 L188.577812,8.42419672 L188.577812,21.7985738 L182.061855,21.7985738 Z M193.245815,21.7767541 L193.245815,8.41842623 L199.74498,8.41842623 L199.74498,21.7767541 L193.245815,21.7767541 Z M163.64334,13.6338689 L163.64334,8.4467377 L177.708736,8.4467377 L177.708736,13.6338689 L163.64334,13.6338689 Z M4.65863202,0.182503124 C6.51073892,0.17334918 8.03550424,1.64825082 8.0463928,3.45982459 C8.05717054,5.29610328 6.47787837,6.86657869 4.64364617,6.84349672 C2.86177417,6.82113607 1.39911889,5.33992295 1.37691094,3.53574262 C1.35434188,1.68341475 2.81428888,0.191742623 4.65863202,0.182503124 Z M12.564212,3.49280656 C12.5700065,1.62929836 14.0279674,0.174593443 15.8822409,0.182316687 C17.6931819,0.189921311 19.2239054,1.7149541 19.2255317,3.51282295 C19.2271554,5.30113443 17.6758488,6.83860984 15.8645468,6.84385288 C14.0460226,6.84906885 12.5584511,5.33882295 12.564212,3.49280656 Z M188.644923,3.54493934 C188.631923,5.37941475 187.098492,6.88857869 185.292606,6.84385738 C183.467221,6.79877541 181.942456,5.23893934 181.985247,3.46072623 C182.02894,1.64626721 183.558761,0.168480328 185.379091,0.182545902 C187.225781,0.196611475 188.658465,1.67151311 188.644923,3.54493934 Z M196.526813,0.182365508 C198.374768,0.182004918 199.844464,1.66213607 199.832548,3.51175902 C199.82027,5.35164426 198.299838,6.8718082 196.49955,6.8440377 C194.683373,6.81608689 193.170163,5.29213607 193.162735,3.48362787 C193.155538,1.67836557 194.679401,0.18272623 196.526813,0.182365508 Z" id="Combined-Shape"></path>
            </g>
        </g>
    </g>
</svg>